<svg xmlns="http://www.w3.org/2000/svg" version="1.1" viewBox="141.92 276.99 982.41 664.55">
<path fill="#142738" d="   M 627.29 277.21   L 767.98 546.41   A 0.61 0.61 0.0 0 1 767.60 547.29   Q 740.87 554.57 711.68 564.22   A 0.76 0.75 66.8 0 1 710.77 563.85   L 626.89 403.36   A 0.24 0.24 0.0 0 0 626.47 403.36   L 523.11 601.80   A 6.71 6.68 -3.2 0 1 520.90 604.26   Q 484.53 628.62 448.41 656.79   Q 439.44 663.78 436.00 666.66   Q 425.36 675.54 423.72 676.73   C 419.14 680.05 415.43 683.92 410.81 687.85   A 0.38 0.38 0.0 0 1 410.23 687.39   Q 510.12 500.09 609.99 308.76   Q 622.49 284.82 626.58 277.21   A 0.40 0.40 0.0 0 1 627.29 277.21   Z"/>
<path fill="#7ebb24" d="   M 395.72 717.31   A 0.30 0.30 0.0 0 1 395.42 716.80   Q 407.51 707.11 422.21 694.83   C 425.31 692.24 429.24 689.82 431.56 687.80   C 439.02 681.31 446.81 676.10 455.21 669.30   Q 459.92 665.49 464.07 662.56   Q 471.98 656.97 484.58 647.35   Q 485.75 646.45 494.58 640.04   Q 514.86 625.31 534.63 612.37   C 536.37 611.22 539.67 608.62 542.02 607.13   Q 552.57 600.43 557.10 597.26   C 566.59 590.63 574.63 585.97 584.66 579.39   Q 600.20 569.21 603.93 567.06   Q 609.36 563.92 613.62 560.90   C 617.85 557.89 621.94 555.98 626.69 552.89   Q 635.16 547.39 649.50 538.97   A 0.26 0.26 0.0 0 1 649.86 539.31   L 609.69 619.32   A 0.33 0.33 0.0 0 0 610.12 619.77   Q 628.66 611.74 653.84 601.28   Q 667.25 595.70 675.41 592.73   C 685.28 589.14 694.79 584.90 704.29 581.67   Q 724.37 574.84 744.02 568.10   Q 751.58 565.50 756.99 564.21   C 762.15 562.97 767.67 560.83 774.30 559.00   Q 803.00 551.08 810.55 549.11   Q 833.40 543.16 864.38 536.76   C 886.72 532.14 909.83 528.87 932.80 524.82   A 0.42 0.42 0.0 0 1 933.28 525.14   L 933.28 525.16   A 0.49 0.48 -14.7 0 1 932.94 525.73   Q 882.48 540.02 829.96 560.50   Q 826.50 561.85 811.25 567.87   Q 762.75 587.01 713.13 613.90   Q 660.61 642.38 606.27 679.05   Q 575.91 699.55 558.12 712.62   Q 539.50 726.31 513.78 744.89   A 0.41 0.40 -6.0 0 1 513.17 744.40   L 554.20 653.48   A 0.36 0.36 0.0 0 0 553.75 653.00   Q 511.22 669.57 467.84 687.63   Q 432.46 702.35 395.72 717.31   Z"/>
<path fill="#142738" d="   M 261.25 898.85   L 249.68 870.01   A 0.53 0.53 0.0 0 0 249.19 869.68   L 186.56 869.68   A 0.53 0.53 0.0 0 0 186.07 870.01   L 174.25 898.85   A 0.53 0.53 0.0 0 1 173.76 899.18   L 142.44 899.18   A 0.53 0.53 0.0 0 1 141.96 898.44   L 202.80 756.52   A 0.53 0.53 0.0 0 1 203.29 756.20   L 233.33 756.20   A 0.53 0.53 0.0 0 1 233.82 756.52   L 293.84 898.44   A 0.53 0.53 0.0 0 1 293.35 899.18   L 261.74 899.18   A 0.53 0.53 0.0 0 1 261.25 898.85   Z   M 196.83 843.57   A 0.40 0.40 0.0 0 0 197.20 844.11   L 238.66 844.19   A 0.40 0.40 0.0 0 0 239.03 843.64   L 218.39 791.56   A 0.40 0.40 0.0 0 0 217.65 791.56   L 196.83 843.57   Z"/>
<path fill="#142738" d="   M 468.08 807.44   L 468.08 796.14   A 0.48 0.48 0.0 0 1 468.56 795.66   L 495.64 795.66   A 0.48 0.48 0.0 0 1 496.12 796.14   Q 496.16 848.35 496.18 887.32   C 496.19 915.44 481.81 936.16 452.99 940.43   C 430.71 943.73 406.53 940.00 388.72 925.24   A 0.64 0.63 -55.3 0 1 388.58 924.43   L 399.92 904.78   A 0.59 0.59 0.0 0 1 400.78 904.60   C 413.14 913.78 428.67 918.63 443.71 917.03   Q 446.70 916.71 450.82 915.25   C 466.04 909.85 467.97 897.01 467.79 882.62   A 0.32 0.32 0.0 0 0 467.22 882.42   Q 457.99 893.67 443.08 896.10   C 432.27 897.87 419.69 896.21 409.95 891.05   C 390.55 880.78 382.61 861.12 384.39 839.66   C 387.04 807.77 415.54 788.27 446.39 795.17   Q 458.03 797.77 467.39 807.72   A 0.40 0.40 0.0 0 0 468.08 807.44   Z   M 413.38 848.45   C 415.12 864.17 427.61 874.04 443.45 872.29   C 459.29 870.54 469.33 858.18 467.59 842.46   C 465.85 826.74 453.36 816.87 437.52 818.62   C 421.68 820.37 411.65 832.73 413.38 848.45   Z"/>
<path fill="#142738" d="   M 338.37 812.58   Q 344.50 799.79 358.07 795.92   Q 367.06 793.35 375.88 795.33   A 0.94 0.94 0.0 0 1 376.62 796.25   L 376.62 821.86   A 0.46 0.46 0.0 0 1 376.05 822.31   Q 365.01 819.60 354.53 822.98   C 345.80 825.80 341.47 832.34 339.28 841.47   Q 338.51 844.67 338.48 852.08   Q 338.39 875.96 338.48 898.52   A 0.63 0.63 0.0 0 1 337.85 899.15   L 310.45 899.15   A 0.74 0.73 -0.0 0 1 309.71 898.42   L 309.71 796.07   A 0.39 0.39 0.0 0 1 310.10 795.68   L 337.22 795.68   A 0.40 0.39 0.0 0 1 337.62 796.07   L 337.62 812.41   A 0.39 0.39 0.0 0 0 338.37 812.58   Z"/>
<path fill="#7ebb24" d="   M 653.11 820.47   A 0.36 0.35 60.0 0 0 653.77 820.65   Q 659.10 811.25 668.30 807.05   Q 687.41 798.31 706.56 807.24   C 716.14 811.71 721.90 820.88 724.15 830.89   Q 724.95 834.42 725.00 844.69   Q 725.08 861.01 724.72 898.28   A 0.89 0.89 0.0 0 1 723.83 899.16   L 712.93 899.16   A 0.38 0.38 0.0 0 1 712.55 898.78   Q 712.73 888.01 712.52 847.50   Q 712.50 843.93 711.90 837.33   C 710.88 826.29 703.21 816.94 692.29 814.86   Q 683.87 813.26 676.09 815.12   C 657.93 819.46 653.04 833.56 653.08 850.57   Q 653.16 884.29 653.06 898.45   A 0.75 0.74 -89.6 0 1 652.32 899.19   L 641.50 899.19   A 0.69 0.68 90.0 0 1 640.82 898.50   L 640.82 805.48   A 0.65 0.65 0.0 0 1 641.47 804.83   L 652.32 804.83   A 0.79 0.78 -0.0 0 1 653.11 805.61   L 653.11 820.47   Z"/>
<path fill="#7ebb24" d="   M 618.62 854.54   A 0.54 0.53 1.1 0 1 618.08 855.05   L 538.87 855.05   A 1.06 1.05 88.5 0 0 537.82 856.17   C 538.89 873.58 550.82 886.74 568.26 889.35   Q 572.64 890.00 579.28 889.36   Q 596.48 887.71 605.09 873.58   A 0.80 0.79 -59.2 0 1 606.17 873.30   L 615.19 878.51   A 0.95 0.95 0.0 0 1 615.54 879.80   C 605.58 896.91 586.25 902.11 567.71 900.41   C 556.88 899.43 546.54 894.93 539.09 887.92   C 521.62 871.47 520.31 838.07 535.54 819.64   C 548.67 803.74 568.98 799.89 588.47 805.31   Q 601.20 808.85 610.94 821.66   Q 611.76 822.73 614.88 829.62   C 618.39 837.38 619.00 845.86 618.62 854.54   Z   M 538.67 845.11   L 605.18 845.11   A 0.76 0.75 -0.7 0 0 605.94 844.34   Q 605.77 836.55 601.97 830.22   C 598.83 824.98 595.78 821.01 590.80 818.43   Q 573.62 809.49 556.02 817.73   C 546.01 822.42 539.08 833.26 537.82 844.16   A 0.86 0.85 3.3 0 0 538.67 845.11   Z"/>
<path fill="#7ebb24" d="   M 838.93 854.58   A 0.54 0.53 1.2 0 1 838.38 855.09   L 759.22 854.96   A 1.06 1.05 88.5 0 0 758.17 856.08   C 759.21 873.48 771.11 886.65 788.54 889.29   Q 792.91 889.94 799.55 889.31   Q 816.74 887.69 825.37 873.58   A 0.80 0.79 -59.1 0 1 826.45 873.31   L 835.46 878.53   A 0.94 0.94 0.0 0 1 835.81 879.82   C 825.82 896.90 806.50 902.07 787.97 900.34   C 777.15 899.34 766.82 894.83 759.39 887.81   C 741.95 871.34 740.70 837.96 755.95 819.56   C 769.10 803.69 789.40 799.88 808.87 805.33   Q 821.59 808.88 831.30 821.70   Q 832.12 822.77 835.23 829.66   C 838.72 837.43 839.32 845.90 838.93 854.58   Z   M 759.25 845.07   L 825.35 845.05   A 0.76 0.75 -0.7 0 0 826.11 844.29   Q 825.94 836.54 822.16 830.25   C 819.03 825.05 816.00 821.10 811.05 818.54   Q 793.98 809.66 776.49 817.85   C 766.54 822.51 759.65 833.29 758.40 844.12   A 0.85 0.85 0.0 0 0 759.25 845.07   Z"/>
<path fill="#7ebb24" d="   M 1002.81 821.57   A 0.36 0.36 0.0 0 0 1003.47 821.38   L 1003.47 805.35   A 0.68 0.68 0.0 0 1 1004.15 804.67   L 1015.11 804.67   A 0.59 0.58 -1.0 0 1 1015.70 805.23   Q 1016.23 827.49 1015.97 842.86   C 1015.67 861.64 1016.04 876.38 1015.72 895.49   Q 1015.57 904.42 1011.21 914.48   C 1005.74 927.11 993.86 934.71 980.76 937.01   C 969.43 939.00 957.78 938.69 946.06 934.87   C 937.02 931.92 929.94 926.19 924.78 918.49   A 0.36 0.36 0.0 0 1 924.86 918.00   L 933.94 910.90   A 0.84 0.84 0.0 0 1 935.17 911.12   C 941.92 922.18 953.72 927.06 966.68 926.93   Q 975.74 926.84 981.22 925.28   C 993.39 921.82 1000.76 912.00 1002.36 899.31   Q 1003.65 889.02 1003.63 878.54   A 0.49 0.49 0.0 0 0 1002.73 878.27   Q 999.39 883.38 993.96 888.24   C 987.95 893.63 980.01 895.76 972.11 896.69   Q 950.98 899.20 934.67 885.17   C 927.49 878.99 922.37 866.98 921.11 858.44   C 918.89 843.44 922.51 828.40 932.66 816.98   Q 938.70 810.17 948.63 806.36   Q 961.13 801.55 974.79 803.55   Q 981.83 804.58 989.84 808.83   C 995.27 811.71 999.47 816.15 1002.81 821.57   Z   M 967.95 885.69   C 979.79 885.87 990.40 881.06 997.22 871.54   Q 1002.40 864.31 1003.00 856.99   Q 1003.84 846.72 1003.13 842.99   C 999.82 825.52 986.57 814.48 969.03 814.21   C 951.49 813.95 937.91 824.59 934.08 841.95   Q 933.26 845.66 933.79 855.95   Q 934.17 863.28 939.13 870.67   C 945.66 880.39 956.12 885.52 967.95 885.69   Z"/>
<path fill="#7ebb24" d="   M 872.78 822.91   A 0.49 0.49 0.0 0 0 873.72 823.11   C 878.27 811.28 890.22 803.21 903.01 803.70   Q 909.59 803.96 912.70 804.79   A 0.81 0.81 0.0 0 1 913.30 805.57   L 913.30 817.12   A 0.80 0.79 7.2 0 1 912.31 817.88   C 910.37 817.39 906.98 816.33 904.51 816.21   C 885.47 815.33 873.35 829.32 873.15 847.74   C 872.92 869.94 873.38 881.50 872.88 898.60   A 0.59 0.59 0.0 0 1 872.29 899.17   L 861.25 899.17   A 0.50 0.50 0.0 0 1 860.75 898.67   L 860.75 805.23   A 0.64 0.64 0.0 0 1 861.39 804.59   L 872.47 804.59   A 0.71 0.70 -1.7 0 1 873.18 805.25   L 873.37 808.02   A 2.12 0.80 72.2 0 1 873.38 808.27   L 872.78 822.91   Z"/>
<path fill="#7ebb24" d="   M 1123.87 804.78   A 0.46 0.46 0.0 0 1 1124.29 805.43   Q 1117.17 821.60 1114.50 828.47   C 1112.48 833.66 1110.07 837.95 1108.14 843.21   Q 1107.86 843.98 1105.65 849.14   Q 1097.74 867.58 1090.36 885.63   Q 1087.55 892.53 1075.67 920.65   Q 1074.92 922.41 1072.25 926.68   C 1065.03 938.21 1052.15 939.53 1039.69 936.77   A 0.65 0.64 6.1 0 1 1039.18 936.14   L 1039.18 926.15   A 0.44 0.44 0.0 0 1 1039.70 925.72   C 1044.83 926.69 1050.43 927.42 1055.39 925.84   C 1061.51 923.90 1063.96 917.30 1066.43 911.21   Q 1070.44 901.32 1070.69 900.71   A 2.95 2.92 44.1 0 0 1070.64 898.42   Q 1052.24 857.43 1047.43 845.97   C 1044.72 839.53 1041.80 834.17 1039.55 828.10   Q 1038.75 825.92 1034.45 816.78   Q 1031.97 811.52 1029.91 805.20   A 0.33 0.33 0.0 0 1 1030.22 804.76   L 1042.36 804.76   A 1.00 0.99 78.2 0 1 1043.27 805.36   L 1077.32 884.57   A 0.50 0.50 0.0 0 0 1078.24 884.56   L 1110.62 805.48   A 1.13 1.12 -78.6 0 1 1111.66 804.78   L 1123.87 804.78   Z"/>
</svg>
